<svg width="20" height="20" viewBox="0 0 20 20" fill="none" xmlns="http://www.w3.org/2000/svg">
<path d="M15.8333 16.6666H3.33333C2.89131 16.6666 2.46738 16.4911 2.15482 16.1785C1.84226 15.8659 1.66667 15.442 1.66667 15V4.99998C1.66667 4.07498 2.40833 3.33331 3.33333 3.33331H8.33333L10 4.99998H15.8333C16.7475 4.99998 17.5 5.75248 17.5 6.66665H3.33333V15L5.11667 8.33331H19.3417L17.4417 15.4166C17.25 16.1416 16.6 16.6666 15.8333 16.6666Z" fill="#4CAF50"/>
<path d="M12.9975 18.065C12.9562 18.0648 12.9151 18.0598 12.875 18.05C12.7273 18.006 12.6015 17.9083 12.5223 17.7761C12.4432 17.6439 12.4165 17.4868 12.4475 17.3358L14.0433 8.83584C14.0577 8.75472 14.0882 8.67733 14.1332 8.6083C14.1781 8.53928 14.2366 8.48005 14.305 8.43417C14.365 8.39454 14.4325 8.36766 14.5033 8.35519C14.5741 8.34271 14.6467 8.34492 14.7167 8.36167C14.8646 8.40565 14.9906 8.50348 15.0699 8.63585C15.1492 8.76822 15.176 8.92551 15.145 9.07667L13.545 17.5767C13.531 17.6576 13.5007 17.7348 13.456 17.8037C13.4113 17.8726 13.3531 17.9317 13.285 17.9775C13.1997 18.034 13.0998 18.0644 12.9975 18.065ZM16.1967 16.8608H16.1567C16.0791 16.8538 16.0038 16.8304 15.936 16.792C15.8682 16.7536 15.8093 16.7012 15.7633 16.6383C15.6729 16.5145 15.6292 16.3627 15.6399 16.2098C15.6505 16.0568 15.7149 15.9126 15.8217 15.8025L18.565 13.1208L15.8333 10.625C15.7234 10.5182 15.6548 10.376 15.6396 10.2235C15.6243 10.0711 15.6634 9.91811 15.75 9.79167C15.7945 9.72689 15.8523 9.67234 15.9196 9.63167C15.9868 9.591 16.062 9.56515 16.14 9.55584C16.2155 9.54778 16.2918 9.55603 16.3639 9.58004C16.4359 9.60405 16.5019 9.64326 16.5575 9.69501L19.7792 12.64C19.8893 12.7466 19.9583 12.8887 19.9738 13.0412C19.9894 13.1936 19.9505 13.3467 19.8642 13.4733C19.8398 13.5083 19.8119 13.5407 19.7808 13.57L16.5725 16.7058C16.4724 16.8049 16.3375 16.8609 16.1967 16.8617V16.8608ZM11.3933 16.8625C11.252 16.8613 11.1168 16.8048 11.0167 16.705L7.80583 13.5675C7.74468 13.507 7.69622 13.4349 7.66329 13.3555C7.63037 13.276 7.61365 13.1908 7.61412 13.1048C7.61459 13.0188 7.63223 12.9337 7.66601 12.8546C7.69979 12.7755 7.74903 12.704 7.81083 12.6442L11.0333 9.70001C11.0878 9.64803 11.1529 9.60852 11.2241 9.5842C11.2953 9.55988 11.371 9.55134 11.4458 9.55917C11.6042 9.57751 11.7467 9.66334 11.8375 9.79501C11.9245 9.92159 11.9639 10.0749 11.9486 10.2278C11.9334 10.3806 11.8645 10.5231 11.7542 10.63L9.02417 13.1242L11.7675 15.8042C11.99 16.0292 12.015 16.3867 11.8267 16.64C11.7807 16.7031 11.7217 16.7556 11.6537 16.794C11.5857 16.8323 11.5103 16.8557 11.4325 16.8625H11.3933Z" fill="#C8E6C9"/>
</svg>
