<svg width="20" height="20" viewBox="0 0 20 20" fill="none" xmlns="http://www.w3.org/2000/svg">
<path d="M8.33333 3.33334H3.33333C2.40833 3.33334 1.66667 4.07501 1.66667 5.00001V15C1.66667 15.9142 2.41917 16.6667 3.33333 16.6667H16.6667C17.5808 16.6667 18.3333 15.9142 18.3333 15V6.66668C18.3333 6.22465 18.1577 5.80073 17.8452 5.48817C17.5326 5.1756 17.1087 5.00001 16.6667 5.00001H10L8.33333 3.33334Z" fill="#03A9F4"/>
<path fill-rule="evenodd" clip-rule="evenodd" d="M18.0883 9.6825H10.4217C9.89417 9.6825 9.46833 10.1133 9.46833 10.6408L9.46333 19.2658L11.38 17.3492H18.0883C18.615 17.3492 19.0467 16.9175 19.0467 16.3908V10.6408C19.0467 10.1133 18.615 9.6825 18.0883 9.6825ZM14.7342 15.4325H13.7758V14.4742H14.7342V15.4325ZM14.7342 13.5158H13.7758V11.5992H14.7342V13.5158Z" fill="#B3E5FC"/>
</svg>
