<svg width="20" height="20" viewBox="0 0 20 20" fill="none" xmlns="http://www.w3.org/2000/svg">
<path d="M8.33333 3.33334H3.33333C2.40833 3.33334 1.66667 4.07501 1.66667 5.00001V15C1.66667 15.9142 2.41917 16.6667 3.33333 16.6667H16.6667C17.5808 16.6667 18.3333 15.9142 18.3333 15V6.66668C18.3333 6.22465 18.1577 5.80073 17.8452 5.48817C17.5326 5.1756 17.1087 5.00001 16.6667 5.00001H10L8.33333 3.33334Z" fill="#1976D2"/>
<path fill-rule="evenodd" clip-rule="evenodd" d="M9.55833 8.68499H10.6333V7.60999C10.0417 7.60999 9.55833 8.09332 9.55833 8.68499ZM9.55833 12.9833H10.6333V11.9083H9.55833V12.9833ZM11.7083 17.2833H12.7833V16.2083H11.7083V17.2833ZM9.55833 10.8333H10.6333V9.75998H9.55833V10.8333ZM14.9333 7.60999H13.8575V8.68499H14.9325L14.9333 7.60999ZM18.1575 7.60999V8.68499H19.2317C19.2317 8.09332 18.7483 7.60999 18.1567 7.60999H18.1575ZM10.6333 17.2833V16.2083H9.55833C9.55833 16.8 10.0417 17.2833 10.6333 17.2833ZM9.55833 15.1333H10.6333V14.06H9.55833V15.1333ZM12.7833 7.60999H11.7083V8.68499H12.7833V7.60999ZM13.8575 17.2833H14.9325V16.2083H13.8575V17.2833ZM18.1575 12.9842H19.2317V11.9092H18.1567L18.1575 12.9842ZM18.1575 17.2833C18.7475 17.2833 19.2317 16.8 19.2317 16.2083H18.1567L18.1575 17.2833ZM18.1575 10.8342H19.2317V9.75998H18.1567L18.1575 10.8342ZM18.1575 15.1333H19.2317V14.06H18.1567L18.1575 15.1333ZM16.0075 17.2833H17.0825V16.2083H16.0075V17.2833ZM16.0075 8.68499H17.0825V7.60999H16.0075V8.68499ZM11.7083 15.1333H17.0825V9.75998H11.7075L11.7083 15.1333ZM12.7833 10.835H16.0075V14.0592H12.7833V10.835Z" fill="#BBDEFB"/>
</svg>
