<svg width="20" height="20" viewBox="0 0 20 20" fill="none" xmlns="http://www.w3.org/2000/svg">
<path d="M8.33333 3.33334H3.33333C2.40833 3.33334 1.66667 4.07501 1.66667 5.00001V15C1.66667 15.9142 2.41917 16.6667 3.33333 16.6667H16.6667C17.5808 16.6667 18.3333 15.9142 18.3333 15V6.66668C18.3333 6.22465 18.1577 5.80073 17.8452 5.48817C17.5326 5.1756 17.1087 5.00001 16.6667 5.00001H10L8.33333 3.33334Z" fill="#546E7A"/>
<path fill-rule="evenodd" clip-rule="evenodd" d="M13.915 6.52084C12.4129 6.52084 10.9723 7.11749 9.91012 8.17955C8.84791 9.2416 8.25105 10.6821 8.25083 12.1842C8.2517 13.3739 8.62621 14.5334 9.32148 15.4989C10.0168 16.4643 10.9977 17.187 12.1258 17.565C12.4092 17.61 12.4992 17.435 12.4992 17.2817V16.325C10.93 16.6642 10.5958 15.5658 10.5958 15.5658C10.3358 14.9092 9.9675 14.7325 9.9675 14.7325C9.45167 14.3825 10.0067 14.3933 10.0067 14.3933C10.5733 14.4333 10.8733 14.9767 10.8733 14.9767C11.3667 15.8375 12.1983 15.5825 12.5217 15.4467C12.5725 15.0783 12.72 14.83 12.8783 14.6883C11.6208 14.5467 10.3017 14.0592 10.3017 11.9017C10.3017 11.2725 10.5167 10.7683 10.885 10.3667C10.8283 10.225 10.63 9.63584 10.9417 8.87084C10.9417 8.87084 11.4167 8.71834 12.4992 9.44918C12.9467 9.32418 13.4333 9.26168 13.9158 9.26168C14.3983 9.26168 14.8833 9.32418 15.3308 9.44918C16.4125 8.71834 16.8892 8.87084 16.8892 8.87084C17.2 9.63584 17.0017 10.225 16.945 10.3667C17.3133 10.7683 17.5283 11.2725 17.5283 11.9017C17.5283 14.065 16.2033 14.5408 14.94 14.6825C15.1442 14.8575 15.3317 15.2033 15.3317 15.73V17.2817C15.3317 17.435 15.4217 17.6158 15.7108 17.565C16.8377 17.1858 17.8171 16.4626 18.5111 15.4972C19.2051 14.5319 19.5786 13.3731 19.5792 12.1842C19.5789 10.6821 18.9821 9.2416 17.9199 8.17955C16.8577 7.11749 15.4171 6.52084 13.915 6.52084Z" fill="#ECEFF1"/>
</svg>
