<svg width="14" height="14" viewBox="0 0 14 14" fill="none" xmlns="http://www.w3.org/2000/svg">
<path d="M0.733333 6.06002L4.58667 2.20002L5.71333 3.33335C5.55333 3.90002 5.81333 4.52002 6.33333 4.82001V8.51335C5.93333 8.74002 5.66667 9.17335 5.66667 9.66668C5.66667 10.0203 5.80714 10.3594 6.05719 10.6095C6.30724 10.8595 6.64638 11 7 11C7.35362 11 7.69276 10.8595 7.94281 10.6095C8.19286 10.3594 8.33333 10.0203 8.33333 9.66668C8.33333 9.17335 8.06667 8.74002 7.66667 8.51335V5.27335L9.04667 6.66668C9 6.76668 9 6.88002 9 7.00002C9 7.35364 9.14048 7.69278 9.39052 7.94282C9.64057 8.19287 9.97971 8.33335 10.3333 8.33335C10.687 8.33335 11.0261 8.19287 11.2761 7.94282C11.5262 7.69278 11.6667 7.35364 11.6667 7.00002C11.6667 6.64639 11.5262 6.30726 11.2761 6.05721C11.0261 5.80716 10.687 5.66668 10.3333 5.66668C10.2133 5.66668 10.1 5.66668 10 5.71335L8.28667 4.00002C8.36944 3.69124 8.33735 3.36291 8.19635 3.07601C8.05535 2.78911 7.81503 2.56312 7.52 2.44002C7.23333 2.33335 6.93333 2.30668 6.66667 2.38002L5.53333 1.25335L6.06 0.733348C6.58 0.206682 7.42 0.206682 7.94 0.733348L13.2667 6.06002C13.7933 6.58002 13.7933 7.42002 13.2667 7.94002L7.94 13.2667C7.42 13.7933 6.58 13.7933 6.06 13.2667L0.733333 7.94002C0.206666 7.42002 0.206666 6.58002 0.733333 6.06002Z" fill="#E64A19"/>
</svg>
