<svg width="24" height="24" viewBox="0 0 24 24" fill="none" xmlns="http://www.w3.org/2000/svg">
<path d="M1.81869 11.0716C1.77199 11.0716 1.76031 11.0483 1.78366 11.0132L2.02886 10.698C2.05221 10.663 2.11059 10.6396 2.15729 10.6396H6.32563C6.37233 10.6396 6.38401 10.6746 6.36065 10.7097L6.16216 11.0132C6.13881 11.0483 6.08043 11.0833 6.0454 11.0833L1.81869 11.0716ZM0.0556152 12.1458C0.00891123 12.1458 -0.0027649 12.1225 0.0205871 12.0874L0.265783 11.7722C0.289135 11.7372 0.347515 11.7138 0.394219 11.7138H5.71847C5.76518 11.7138 5.78853 11.7488 5.77685 11.7839L5.68345 12.0641C5.67177 12.1108 5.62507 12.1341 5.57836 12.1341L0.0556152 12.1458ZM2.88121 13.22C2.8345 13.22 2.82283 13.185 2.84618 13.15L3.00964 12.8581C3.033 12.823 3.0797 12.788 3.1264 12.788H5.4616C5.50831 12.788 5.53166 12.823 5.53166 12.8697L5.50831 13.15C5.50831 13.1967 5.4616 13.2317 5.42657 13.2317L2.88121 13.22Z" fill="#00ACC1"/>
<path d="M15.0009 10.8615C14.2653 11.0483 13.7632 11.1884 13.0393 11.3752C12.8642 11.4219 12.8525 11.4336 12.7007 11.2585C12.5256 11.06 12.3972 10.9315 12.152 10.8148C11.4164 10.4528 10.7041 10.5579 10.0386 10.9899C9.24464 11.5036 8.83598 12.2626 8.84765 13.2083C8.85933 14.1424 9.50151 14.913 10.4239 15.0415C11.2179 15.1466 11.8834 14.8663 12.4088 14.2709C12.5139 14.1424 12.6073 14.0023 12.7241 13.8388H10.4706C10.2254 13.8388 10.167 13.6871 10.2488 13.4886C10.4006 13.1266 10.6808 12.5195 10.8442 12.2159C10.8793 12.1458 10.961 12.0291 11.1361 12.0291H15.3862C15.3629 12.3443 15.3629 12.6596 15.3162 12.9748C15.1877 13.8155 14.8725 14.5861 14.3587 15.2633C13.5181 16.3725 12.4205 17.0614 11.0311 17.2482C9.88682 17.4 8.8243 17.1782 7.89022 16.4776C7.0262 15.8238 6.53581 14.9597 6.40737 13.8856C6.25558 12.6129 6.62921 11.4686 7.39983 10.4645C8.22883 9.37862 9.32637 8.68973 10.6691 8.44454C11.7667 8.24604 12.8175 8.37448 13.7632 9.01666C14.3821 9.42532 14.8258 9.98577 15.1177 10.663C15.1877 10.7681 15.141 10.8264 15.0009 10.8615Z" fill="#00ACC1"/>
<path d="M18.8657 17.3183C17.8031 17.2949 16.834 16.9914 16.0167 16.2908C15.3278 15.6953 14.8958 14.9364 14.7557 14.0373C14.5455 12.718 14.9075 11.5504 15.7015 10.5112C16.5538 9.3903 17.5813 8.8065 18.9707 8.5613C20.1617 8.35113 21.2826 8.46789 22.2984 9.15678C23.2208 9.78728 23.7929 10.6396 23.9447 11.7605C24.1432 13.3368 23.6878 14.6211 22.602 15.7187C21.8314 16.501 20.8856 16.9914 19.7997 17.2132C19.4845 17.2716 19.1692 17.2833 18.8657 17.3183ZM21.6445 12.6012C21.6329 12.4494 21.6329 12.3326 21.6095 12.2159C21.3993 11.06 20.3368 10.4061 19.2276 10.663C18.1417 10.9082 17.4412 11.5971 17.1843 12.6946C16.9741 13.6053 17.4178 14.5277 18.2585 14.9014C18.9007 15.1816 19.5429 15.1466 20.1617 14.8313C21.0841 14.3526 21.5862 13.6053 21.6445 12.6012Z" fill="#00ACC1"/>
</svg>
