<svg width="16" height="20" viewBox="0 0 16 20" fill="none" xmlns="http://www.w3.org/2000/svg">
<path d="M8.97599 7.07203H14.344L8.97599 1.70503V7.07203ZM2.14399 0.241028H9.95199L15.808 6.09603V17.807C15.808 18.3247 15.6023 18.8212 15.2363 19.1873C14.8702 19.5534 14.3737 19.759 13.856 19.759H2.14499C1.88862 19.7592 1.63473 19.7088 1.39784 19.6107C1.16095 19.5127 0.945714 19.3689 0.764428 19.1876C0.583142 19.0063 0.439364 18.7911 0.341313 18.5542C0.243263 18.3173 0.192862 18.0634 0.192993 17.807V2.19203C0.192993 1.10903 1.06099 0.241028 2.14499 0.241028M2.14499 17.808H13.855V10L9.95199 13.904L7.99999 11.952L2.14399 17.808M4.09599 7.07303C3.57829 7.07303 3.08179 7.27868 2.71572 7.64476C2.34965 8.01083 2.14399 8.50732 2.14399 9.02503C2.14426 9.54256 2.35003 10.0388 2.71607 10.4047C3.08212 10.7705 3.57846 10.976 4.09599 10.976C4.61352 10.976 5.10987 10.7705 5.47591 10.4047C5.84195 10.0388 6.04773 9.54256 6.04799 9.02503C6.04799 8.50732 5.84234 8.01083 5.47627 7.64476C5.1102 7.27868 4.6137 7.07303 4.09599 7.07303Z" fill="#26A69A"/>
</svg>
