<svg width="22" height="18" viewBox="0 0 22 18" fill="none" xmlns="http://www.w3.org/2000/svg">
<path d="M4.75905 0.974977H6.54205V2.75998H4.75905V7.21798C4.75892 7.45212 4.71267 7.68395 4.62294 7.90023C4.53322 8.1165 4.40177 8.31298 4.23611 8.47846C4.07045 8.64393 3.87382 8.77515 3.65745 8.86464C3.44108 8.95412 3.2092 9.00011 2.97505 8.99998C3.20928 8.99985 3.44124 9.04587 3.65768 9.13541C3.87412 9.22496 4.07079 9.35627 4.23647 9.52185C4.40214 9.68743 4.53356 9.88403 4.62323 10.1004C4.7129 10.3168 4.75905 10.5487 4.75905 10.783V15.242H6.54205V17.025H4.75905C3.80505 16.785 2.97505 16.222 2.97505 15.242V11.675C2.97505 11.2021 2.7872 10.7486 2.45282 10.4142C2.11844 10.0798 1.66493 9.89198 1.19205 9.89198H0.300049V8.10898H1.19205C1.42628 8.10898 1.65822 8.06283 1.8746 7.97316C2.09099 7.88349 2.28759 7.75207 2.45317 7.58639C2.61875 7.42072 2.75007 7.22405 2.83961 7.00761C2.92916 6.79117 2.97518 6.55921 2.97505 6.32498V2.75998C2.97479 2.52549 3.02078 2.29326 3.11039 2.07658C3.2 1.85989 3.33147 1.66301 3.49728 1.4972C3.66308 1.3314 3.85996 1.19993 4.07665 1.11032C4.29333 1.0207 4.52557 0.974714 4.76005 0.974977M17.243 0.974977C17.4773 0.974977 17.7092 1.02113 17.9256 1.1108C18.142 1.20046 18.3386 1.33189 18.5042 1.49756C18.6698 1.66323 18.8011 1.85991 18.8906 2.07635C18.9802 2.29278 19.0262 2.52475 19.026 2.75898V6.32498C19.0259 6.55921 19.0719 6.79117 19.1615 7.00761C19.251 7.22405 19.3823 7.42072 19.5479 7.58639C19.7135 7.75207 19.9101 7.88349 20.1265 7.97316C20.3429 8.06283 20.5748 8.10898 20.809 8.10898H21.701V9.89198H20.809C20.5749 9.89198 20.343 9.9381 20.1267 10.0277C19.9104 10.1173 19.7138 10.2486 19.5483 10.4142C19.3827 10.5798 19.2514 10.7763 19.1618 10.9927C19.0722 11.209 19.026 11.4408 19.026 11.675V15.242C19.026 15.7149 18.8382 16.1684 18.5038 16.5027C18.1694 16.8371 17.7159 17.025 17.243 17.025H15.459V15.242H17.243V10.783C17.243 10.3103 17.4308 9.85691 17.7649 9.52256C18.0991 9.18821 18.5523 9.00024 19.025 8.99998C18.5522 8.99998 18.0987 8.81213 17.7643 8.47775C17.4299 8.14337 17.2421 7.68986 17.2421 7.21698V2.75898H15.458V0.974977H17.2421M11 11.675C11.2366 11.675 11.4635 11.769 11.6308 11.9362C11.7981 12.1035 11.892 12.3304 11.892 12.567C11.892 12.8036 11.7981 13.0304 11.6308 13.1977C11.4635 13.365 11.2366 13.459 11 13.459C10.7636 13.4587 10.537 13.3646 10.37 13.1974C10.2029 13.0301 10.109 12.8034 10.109 12.567C10.109 12.3306 10.2029 12.1038 10.37 11.9366C10.537 11.7693 10.7636 11.6752 11 11.675ZM7.43405 11.675C7.67045 11.6752 7.89708 11.7693 8.06414 11.9366C8.23121 12.1038 8.32505 12.3306 8.32505 12.567C8.32505 12.8034 8.23121 13.0301 8.06414 13.1974C7.89708 13.3646 7.67045 13.4587 7.43405 13.459C7.31691 13.459 7.20092 13.4359 7.0927 13.3911C6.98447 13.3462 6.88614 13.2805 6.80331 13.1977C6.72048 13.1149 6.65478 13.0166 6.60995 12.9083C6.56512 12.8001 6.54205 12.6841 6.54205 12.567C6.54205 12.4498 6.56512 12.3338 6.60995 12.2256C6.65478 12.1174 6.72048 12.0191 6.80331 11.9362C6.88614 11.8534 6.98447 11.7877 7.0927 11.7429C7.20092 11.698 7.31691 11.675 7.43405 11.675ZM14.567 11.675C14.8034 11.6752 15.0301 11.7693 15.1971 11.9366C15.3642 12.1038 15.458 12.3306 15.458 12.567C15.458 12.8034 15.3642 13.0301 15.1971 13.1974C15.0301 13.3646 14.8034 13.4587 14.567 13.459C14.3305 13.459 14.1036 13.365 13.9363 13.1977C13.769 13.0304 13.675 12.8036 13.675 12.567C13.675 12.3304 13.769 12.1035 13.9363 11.9362C14.1036 11.769 14.3305 11.675 14.567 11.675Z" fill="#FBC02D"/>
</svg>
