<svg width="12" height="14" viewBox="0 0 12 14" fill="none" xmlns="http://www.w3.org/2000/svg">
<path d="M6 10.6667C6.35362 10.6667 6.69276 10.5262 6.94281 10.2761C7.19286 10.0261 7.33333 9.68696 7.33333 9.33333C7.33333 8.97971 7.19286 8.64057 6.94281 8.39052C6.69276 8.14048 6.35362 8 6 8C5.64638 8 5.30724 8.14048 5.05719 8.39052C4.80714 8.64057 4.66667 8.97971 4.66667 9.33333C4.66667 9.68696 4.80714 10.0261 5.05719 10.2761C5.30724 10.5262 5.64638 10.6667 6 10.6667ZM10 4.66667C10.3536 4.66667 10.6928 4.80714 10.9428 5.05719C11.1929 5.30724 11.3333 5.64638 11.3333 6V12.6667C11.3333 13.0203 11.1929 13.3594 10.9428 13.6095C10.6928 13.8595 10.3536 14 10 14H2C1.64638 14 1.30724 13.8595 1.05719 13.6095C0.807144 13.3594 0.666668 13.0203 0.666668 12.6667V6C0.666668 5.64638 0.807144 5.30724 1.05719 5.05719C1.30724 4.80714 1.64638 4.66667 2 4.66667H2.66667V3.33333C2.66667 2.44928 3.01786 1.60143 3.64298 0.976311C4.2681 0.351189 5.11595 0 6 0C6.88406 0 7.7319 0.351189 8.35702 0.976311C8.98214 1.60143 9.33333 2.44928 9.33333 3.33333V4.66667H10ZM6 1.33333C5.46957 1.33333 4.96086 1.54405 4.58579 1.91912C4.21071 2.29419 4 2.8029 4 3.33333V4.66667H8V3.33333C8 2.8029 7.78929 2.29419 7.41421 1.91912C7.03914 1.54405 6.53043 1.33333 6 1.33333Z" fill="#FFD54F"/>
</svg>
