<svg width="24" height="24" viewBox="0 0 24 24" fill="none" xmlns="http://www.w3.org/2000/svg">
<path d="M19.7143 5.3143H18.6857C18.4017 5.3143 18.1714 5.54455 18.1714 5.82859C18.1714 6.11262 18.4017 6.34287 18.6857 6.34287H19.7143C19.9983 6.34287 20.2286 6.11262 20.2286 5.82859C20.2286 5.54455 19.9983 5.3143 19.7143 5.3143Z" fill="#56B3B4"/>
<path d="M8.4 21.7714H3.25714C2.97311 21.7714 2.74286 22.0017 2.74286 22.2857C2.74286 22.5698 2.97311 22.8 3.25714 22.8H8.4C8.68403 22.8 8.91429 22.5698 8.91429 22.2857C8.91429 22.0017 8.68403 21.7714 8.4 21.7714Z" fill="#EA5E5E"/>
<path d="M18.6857 13.5429H15.6C15.316 13.5429 15.0857 13.7731 15.0857 14.0572C15.0857 14.3412 15.316 14.5714 15.6 14.5714H18.6857C18.9698 14.5714 19.2 14.3412 19.2 14.0572C19.2 13.7731 18.9698 13.5429 18.6857 13.5429Z" fill="#BF85BF"/>
<path d="M13.5428 13.5429H9.42856C9.14453 13.5429 8.91428 13.7731 8.91428 14.0572C8.91428 14.3412 9.14453 14.5714 9.42856 14.5714H13.5428C13.8269 14.5714 14.0571 14.3412 14.0571 14.0572C14.0571 13.7731 13.8269 13.5429 13.5428 13.5429Z" fill="#EA5E5E"/>
<path d="M7.37143 13.5429H3.25714C2.97311 13.5429 2.74286 13.7731 2.74286 14.0572C2.74286 14.3412 2.97311 14.5714 3.25714 14.5714H7.37143C7.65546 14.5714 7.88572 14.3412 7.88572 14.0572C7.88572 13.7731 7.65546 13.5429 7.37143 13.5429Z" fill="#56B3B4"/>
<path d="M8.4 17.6572H3.25714C2.97311 17.6572 2.74286 17.8874 2.74286 18.1715C2.74286 18.4555 2.97311 18.6857 3.25714 18.6857H8.4C8.68403 18.6857 8.91429 18.4555 8.91429 18.1715C8.91429 17.8874 8.68403 17.6572 8.4 17.6572Z" fill="#BF85BF"/>
<path d="M8.4 9.42859H3.25714C2.97311 9.42859 2.74286 9.65884 2.74286 9.94287C2.74286 10.2269 2.97311 10.4572 3.25714 10.4572H8.4C8.68403 10.4572 8.91429 10.2269 8.91429 9.94287C8.91429 9.65884 8.68403 9.42859 8.4 9.42859Z" fill="#BF85BF"/>
<path d="M18.6857 3.25714H8.4C8.11597 3.25714 7.88571 3.48739 7.88571 3.77143C7.88571 4.05546 8.11597 4.28571 8.4 4.28571H18.6857C18.9697 4.28571 19.2 4.05546 19.2 3.77143C19.2 3.48739 18.9697 3.25714 18.6857 3.25714Z" fill="#F7BA3E"/>
<path d="M6.34286 3.25714H3.25714C2.97311 3.25714 2.74286 3.48739 2.74286 3.77143C2.74286 4.05546 2.97311 4.28571 3.25714 4.28571H6.34286C6.62689 4.28571 6.85714 4.05546 6.85714 3.77143C6.85714 3.48739 6.62689 3.25714 6.34286 3.25714Z" fill="#EA5E5E"/>
<path d="M8.4 19.7143H7.37143C7.0874 19.7143 6.85715 19.9445 6.85715 20.2286C6.85715 20.5126 7.0874 20.7429 7.37143 20.7429H8.4C8.68404 20.7429 8.91429 20.5126 8.91429 20.2286C8.91429 19.9445 8.68404 19.7143 8.4 19.7143Z" fill="#F7BA3E"/>
<path d="M8.4 7.37143H7.37143C7.0874 7.37143 6.85715 7.60168 6.85715 7.88572C6.85715 8.16975 7.0874 8.4 7.37143 8.4H8.4C8.68404 8.4 8.91429 8.16975 8.91429 7.88572C8.91429 7.60168 8.68404 7.37143 8.4 7.37143Z" fill="#56B3B4"/>
<path d="M5.31429 19.7143H3.25714C2.97311 19.7143 2.74286 19.9445 2.74286 20.2286C2.74286 20.5126 2.97311 20.7429 3.25714 20.7429H5.31429C5.59832 20.7429 5.82857 20.5126 5.82857 20.2286C5.82857 19.9445 5.59832 19.7143 5.31429 19.7143Z" fill="#56B3B4"/>
<path d="M5.31429 7.37143H3.25714C2.97311 7.37143 2.74286 7.60168 2.74286 7.88572C2.74286 8.16975 2.97311 8.4 3.25714 8.4H5.31429C5.59832 8.4 5.82857 8.16975 5.82857 7.88572C5.82857 7.60168 5.59832 7.37143 5.31429 7.37143Z" fill="#F7BA3E"/>
<path d="M19.7143 11.4857H11.4857C11.2017 11.4857 10.9714 11.716 10.9714 12C10.9714 12.284 11.2017 12.5143 11.4857 12.5143H19.7143C19.9983 12.5143 20.2286 12.284 20.2286 12C20.2286 11.716 19.9983 11.4857 19.7143 11.4857Z" fill="#56B3B4"/>
<path d="M9.42858 11.4857H6.34287C6.05884 11.4857 5.82858 11.716 5.82858 12C5.82858 12.284 6.05884 12.5143 6.34287 12.5143H9.42858C9.71262 12.5143 9.94287 12.284 9.94287 12C9.94287 11.716 9.71262 11.4857 9.42858 11.4857Z" fill="#F7BA3E"/>
<path d="M4.28572 11.4857H3.25714C2.97311 11.4857 2.74286 11.716 2.74286 12C2.74286 12.284 2.97311 12.5143 3.25714 12.5143H4.28572C4.56975 12.5143 4.8 12.284 4.8 12C4.8 11.716 4.56975 11.4857 4.28572 11.4857Z" fill="#EA5E5E"/>
<path d="M16.6286 5.3143H12.5143C12.2303 5.3143 12 5.54455 12 5.82859C12 6.11262 12.2303 6.34287 12.5143 6.34287H16.6286C16.9126 6.34287 17.1429 6.11262 17.1429 5.82859C17.1429 5.54455 16.9126 5.3143 16.6286 5.3143Z" fill="#BF85BF"/>
<path d="M10.4571 5.3143H3.25714C2.97311 5.3143 2.74286 5.54455 2.74286 5.82859C2.74286 6.11262 2.97311 6.34287 3.25714 6.34287H10.4571C10.7412 6.34287 10.9714 6.11262 10.9714 5.82859C10.9714 5.54455 10.7412 5.3143 10.4571 5.3143Z" fill="#56B3B4"/>
<path d="M15.6 15.6H6.34287C6.05884 15.6 5.82858 15.8303 5.82858 16.1143C5.82858 16.3983 6.05884 16.6286 6.34287 16.6286H15.6C15.884 16.6286 16.1143 16.3983 16.1143 16.1143C16.1143 15.8303 15.884 15.6 15.6 15.6Z" fill="#F7BA3E"/>
<path d="M4.28572 15.6H3.25714C2.97311 15.6 2.74286 15.8303 2.74286 16.1143C2.74286 16.3983 2.97311 16.6286 3.25714 16.6286H4.28572C4.56975 16.6286 4.8 16.3983 4.8 16.1143C4.8 15.8303 4.56975 15.6 4.28572 15.6Z" fill="#BF85BF"/>
<path d="M20.7429 7.37143H15.6C15.316 7.37143 15.0857 7.60168 15.0857 7.88572C15.0857 8.16975 15.316 8.4 15.6 8.4H20.7429C21.0269 8.4 21.2572 8.16975 21.2572 7.88572C21.2572 7.60168 21.0269 7.37143 20.7429 7.37143Z" fill="#EA5E5E"/>
<path d="M20.7429 9.42859H15.6C15.316 9.42859 15.0857 9.65884 15.0857 9.94287C15.0857 10.2269 15.316 10.4572 15.6 10.4572H20.7429C21.0269 10.4572 21.2572 10.2269 21.2572 9.94287C21.2572 9.65884 21.0269 9.42859 20.7429 9.42859Z" fill="#F7BA3E"/>
<path d="M15.6 1.20001H3.25714C2.97311 1.20001 2.74286 1.43027 2.74286 1.7143C2.74286 1.99833 2.97311 2.22858 3.25714 2.22858H15.6C15.884 2.22858 16.1143 1.99833 16.1143 1.7143C16.1143 1.43027 15.884 1.20001 15.6 1.20001Z" fill="#56B3B4"/>
</svg>
