<svg width="16" height="16" viewBox="0 0 16 16" fill="none" xmlns="http://www.w3.org/2000/svg">
<path d="M7.49956 1.88507C7.49956 1.75894 7.54966 1.63798 7.63885 1.54879C7.72803 1.4596 7.849 1.4095 7.97513 1.4095C8.10126 1.4095 8.22222 1.4596 8.31141 1.54879C8.4006 1.63798 8.4507 1.75894 8.4507 1.88507C8.4507 2.0112 8.4006 2.13216 8.31141 2.22135C8.22222 2.31054 8.10126 2.36064 7.97513 2.36064C7.849 2.36064 7.72803 2.31054 7.63885 2.22135C7.54966 2.13216 7.49956 2.0112 7.49956 1.88507ZM1.82632 6.19081C1.82632 6.06468 1.87642 5.94371 1.96561 5.85453C2.0548 5.76534 2.17576 5.71523 2.30189 5.71523C2.42802 5.71523 2.54898 5.76534 2.63817 5.85453C2.72736 5.94371 2.77746 6.06468 2.77746 6.19081C2.77746 6.31694 2.72736 6.4379 2.63817 6.52709C2.54898 6.61628 2.42802 6.66638 2.30189 6.66638C2.17576 6.66638 2.0548 6.61628 1.96561 6.52709C1.87642 6.4379 1.82632 6.31694 1.82632 6.19081ZM13.1725 6.21298C13.1725 6.08684 13.2226 5.96588 13.3118 5.87669C13.401 5.78751 13.522 5.7374 13.6481 5.7374C13.7742 5.7374 13.8952 5.78751 13.9844 5.87669C14.0736 5.96588 14.1237 6.08684 14.1237 6.21298C14.1237 6.33911 14.0736 6.46007 13.9844 6.54926C13.8952 6.63844 13.7742 6.68855 13.6481 6.68855C13.522 6.68855 13.401 6.63844 13.3118 6.54926C13.2226 6.46007 13.1725 6.33911 13.1725 6.21298ZM3.2029 6.86461C3.30806 6.81784 3.39035 6.73123 3.43169 6.62381C3.47302 6.5164 3.47003 6.39697 3.42336 6.29176L3.21238 5.81452H4.04215V9.55475H2.36806C2.1614 8.82891 2.09701 8.06996 2.17844 7.31969L3.2029 6.86461ZM6.67393 6.95648V5.85404H8.64993C8.75195 5.85404 9.37061 5.97195 9.37061 6.4345C9.37061 6.81868 8.89617 6.95635 8.50599 6.95635L6.67393 6.95648ZM3.97618 12.8922C3.97618 12.7661 4.02629 12.6451 4.11547 12.556C4.20466 12.4668 4.32563 12.4167 4.45176 12.4167C4.57789 12.4167 4.69885 12.4668 4.78804 12.556C4.87722 12.6451 4.92733 12.7661 4.92733 12.8922C4.92733 13.0184 4.87722 13.1393 4.78804 13.2285C4.69885 13.3177 4.57789 13.3678 4.45176 13.3678C4.32563 13.3678 4.20466 13.3177 4.11547 13.2285C4.02629 13.1393 3.97618 13.0184 3.97618 12.8922ZM11.0225 12.9144C11.0225 12.7883 11.0726 12.6673 11.1618 12.5781C11.251 12.4889 11.372 12.4388 11.4981 12.4388C11.6242 12.4388 11.7452 12.4889 11.8344 12.5781C11.9236 12.6673 11.9737 12.7883 11.9737 12.9144C11.9737 13.0405 11.9236 13.1615 11.8344 13.2507C11.7452 13.3399 11.6242 13.39 11.4981 13.39C11.372 13.39 11.251 13.3399 11.1618 13.2507C11.0726 13.1615 11.0225 13.0405 11.0225 12.9144ZM11.1695 11.836C11.1138 11.824 11.0563 11.8232 11.0003 11.8335C10.9442 11.8438 10.8908 11.865 10.8429 11.896C10.7951 11.927 10.7539 11.9671 10.7216 12.014C10.6892 12.061 10.6665 12.1138 10.6546 12.1696L10.416 13.2835C9.64842 13.6312 8.81479 13.8091 7.97211 13.8051C7.12943 13.8011 6.29754 13.6152 5.5333 13.2601L5.29468 12.1462C5.2828 12.0905 5.26006 12.0377 5.22776 11.9908C5.19547 11.9439 5.15424 11.9038 5.10645 11.8728C5.05866 11.8419 5.00523 11.8206 4.94922 11.8103C4.89322 11.8 4.83573 11.8009 4.78004 11.8128L3.79658 12.0239C3.61385 11.8357 3.44397 11.6355 3.28809 11.4246H8.07307C8.12729 11.4246 8.16334 11.4147 8.16334 11.3654V9.67279C8.16334 9.62352 8.12729 9.61377 8.07307 9.61377H6.67366V8.54084H8.18725C8.32545 8.54084 8.92594 8.58036 9.11796 9.34804C9.17805 9.58412 9.31025 10.3521 9.40052 10.5979C9.49052 10.8736 9.8568 11.4245 10.2471 11.4245H12.7176C12.5519 11.6462 12.3708 11.8559 12.1754 12.0521L11.1695 11.836ZM13.8266 7.36696C13.8602 7.70477 13.8643 8.04487 13.839 8.3834H13.2382C13.1781 8.3834 13.154 8.42293 13.154 8.48182V8.75769C13.154 9.40706 12.7878 9.5482 12.4669 9.58426C12.1614 9.61871 11.8227 9.45633 11.7809 9.26939C11.6006 8.25548 11.3001 8.03902 10.8258 7.66487C11.4146 7.29098 12.0271 6.73949 12.0271 6.00146C12.0271 5.20427 11.4807 4.70233 11.1083 4.45623C10.5856 4.11172 10.0072 4.04281 9.85105 4.04281H3.63835C4.49716 3.08301 5.64849 2.43317 6.91402 2.19393L7.64631 2.96214C7.6856 3.00336 7.73263 3.03642 7.78472 3.05944C7.83681 3.08246 7.89292 3.09498 7.94985 3.09628C8.00679 3.09758 8.06341 3.08764 8.1165 3.06703C8.16958 3.04642 8.21808 3.01554 8.25922 2.97616L9.0787 2.19246C9.91397 2.34894 10.7052 2.68537 11.3973 3.17837C12.0895 3.67137 12.666 4.30914 13.0869 5.04737L12.526 6.31419C12.4795 6.41943 12.4765 6.53882 12.5179 6.6462C12.5592 6.75357 12.6415 6.84018 12.7466 6.88704L13.8266 7.36696ZM15.2256 7.38752L15.2065 7.19163L15.7843 6.6527C15.9018 6.5432 15.8577 6.3226 15.7076 6.26665L14.9689 5.99051L14.9111 5.79983L15.3718 5.15994C15.4658 5.02988 15.3795 4.82211 15.2213 4.7962L14.4424 4.66948L14.3489 4.49455L14.6761 3.77615C14.7431 3.62993 14.6187 3.44285 14.4576 3.449L13.6671 3.4765L13.5423 3.32495L13.7239 2.555C13.7606 2.39877 13.602 2.23987 13.4456 2.27659L12.6758 2.45806L12.5241 2.3332L12.5517 1.54269C12.5579 1.38272 12.3705 1.2576 12.2246 1.3241L11.5063 1.65152L11.3314 1.55765L11.2045 0.778759C11.1788 0.62079 10.9709 0.534395 10.8409 0.628134L10.2005 1.08882L10.0102 1.03113L9.73408 0.292435C9.678 0.141944 9.4574 0.0985467 9.34817 0.215521L8.80924 0.793714L8.61335 0.774619L8.19713 0.102152C8.113 -0.0340506 7.8876 -0.0340506 7.80374 0.102152L7.38752 0.774619L7.19163 0.793714L6.65256 0.215521C6.5432 0.0985467 6.32274 0.141944 6.26665 0.292435L5.99038 1.03113L5.79996 1.08882L5.15967 0.628134C5.02961 0.534261 4.82184 0.62079 4.79607 0.778759L4.66908 1.55765L4.49415 1.65152L3.77588 1.3241C3.62993 1.25734 3.44259 1.38272 3.44873 1.54269L3.47624 2.3332L3.32455 2.45806L2.55473 2.27645C2.39837 2.24013 2.2396 2.39863 2.27619 2.555L2.45752 3.32495L2.33294 3.4765L1.54243 3.449C1.38312 3.44432 1.25747 3.62993 1.32384 3.77615L1.65139 4.49455L1.55752 4.66948L0.778758 4.7962C0.620523 4.82184 0.534795 5.02988 0.628134 5.15994L1.08882 5.79983L1.031 5.99051L0.292301 6.26665C0.142345 6.32274 0.0984131 6.54307 0.215654 6.6527L0.79358 7.19163L0.774485 7.38752L0.102152 7.80361C-0.0340506 7.88773 -0.0340506 8.11313 0.102152 8.19699L0.774485 8.61321L0.79358 8.8091L0.215654 9.34817C0.0984131 9.4574 0.142345 9.67773 0.292301 9.73408L1.031 10.0102L1.08882 10.2009L0.628134 10.8409C0.534528 10.9713 0.620657 11.179 0.778892 11.2045L1.55752 11.3311L1.65139 11.5063L1.32384 12.2245C1.25707 12.3704 1.38312 12.5583 1.54256 12.5517L2.33267 12.5241L2.45752 12.6758L2.27619 13.446C2.23946 13.602 2.39837 13.7605 2.55473 13.7237L3.32455 13.5425L3.47637 13.667L3.44873 14.4576C3.44259 14.6177 3.62993 14.7429 3.77588 14.6761L4.49415 14.3489L4.66908 14.4427L4.79593 15.2212C4.82171 15.3797 5.02961 15.4654 5.15981 15.3721L5.79969 14.911L5.99024 14.9691L6.26652 15.7075C6.3226 15.8575 6.5432 15.9017 6.65243 15.7841L7.1915 15.2062L7.38739 15.2257L7.80361 15.898C7.88747 16.0337 8.11287 16.034 8.19699 15.898L8.61321 15.2257L8.8091 15.2062L9.34804 15.7841C9.45727 15.9017 9.67786 15.8575 9.73395 15.7075L10.0101 14.9691L10.2008 14.911L10.8408 15.3721C10.9709 15.4654 11.1786 15.3794 11.2043 15.2212L11.3314 14.4427L11.5063 14.3488L12.2245 14.6761C12.3704 14.7429 12.5573 14.618 12.5516 14.4576L12.5241 13.6671L12.6757 13.5425L13.4455 13.7237C13.6018 13.7605 13.7606 13.602 13.7239 13.446L13.5425 12.6758L13.667 12.5241L14.4575 12.5517C14.6169 12.5581 14.743 12.3704 14.676 12.2245L14.3488 11.5063L14.4423 11.3311L15.2212 11.2045C15.3797 11.1792 15.4657 10.9713 15.3717 10.8409L14.911 10.2009L14.9688 10.0102L15.7075 9.73408C15.8577 9.67773 15.9017 9.4574 15.7841 9.34817L15.2064 8.8091L15.2254 8.61321L15.8978 8.19699C16.034 8.11313 16.0341 7.88787 15.8979 7.80361L15.2256 7.38752Z" fill="#FF7043"/>
</svg>
