<svg width="14" height="14" viewBox="0 0 14 14" fill="none" xmlns="http://www.w3.org/2000/svg">
<path d="M7.00133 9.33331C6.3825 9.33331 5.789 9.08748 5.35142 8.6499C4.91383 8.21231 4.668 7.61882 4.668 6.99998C4.668 6.38114 4.91383 5.78765 5.35142 5.35007C5.789 4.91248 6.3825 4.66665 7.00133 4.66665C7.62017 4.66665 8.21367 4.91248 8.65125 5.35007C9.08884 5.78765 9.33467 6.38114 9.33467 6.99998C9.33467 7.61882 9.08884 8.21231 8.65125 8.6499C8.21367 9.08748 7.62017 9.33331 7.00133 9.33331ZM11.9547 7.64665C11.9813 7.43331 12.0013 7.21998 12.0013 6.99998C12.0013 6.77998 11.9813 6.55998 11.9547 6.33331L13.3613 5.24665C13.488 5.14665 13.5213 4.96665 13.4413 4.81998L12.108 2.51331C12.028 2.36665 11.848 2.30665 11.7013 2.36665L10.0413 3.03331C9.69467 2.77331 9.33467 2.54665 8.91467 2.37998L8.668 0.613314C8.65446 0.534792 8.61356 0.463599 8.55255 0.412349C8.49153 0.361098 8.41435 0.3331 8.33467 0.333314H5.668C5.50134 0.333314 5.36133 0.453314 5.33467 0.613314L5.088 2.37998C4.668 2.54665 4.308 2.77331 3.96133 3.03331L2.30134 2.36665C2.15467 2.30665 1.97467 2.36665 1.89467 2.51331L0.561335 4.81998C0.474668 4.96665 0.514668 5.14665 0.641335 5.24665L2.048 6.33331C2.02134 6.55998 2.00133 6.77998 2.00133 6.99998C2.00133 7.21998 2.02134 7.43331 2.048 7.64665L0.641335 8.75331C0.514668 8.85331 0.474668 9.03331 0.561335 9.17998L1.89467 11.4866C1.97467 11.6333 2.15467 11.6866 2.30134 11.6333L3.96133 10.96C4.308 11.2266 4.668 11.4533 5.088 11.62L5.33467 13.3866C5.36133 13.5466 5.50134 13.6666 5.668 13.6666H8.33467C8.50133 13.6666 8.64133 13.5466 8.668 13.3866L8.91467 11.62C9.33467 11.4466 9.69467 11.2266 10.0413 10.96L11.7013 11.6333C11.848 11.6866 12.028 11.6333 12.108 11.4866L13.4413 9.17998C13.5213 9.03331 13.488 8.85331 13.3613 8.75331L11.9547 7.64665Z" fill="#42A5F5"/>
</svg>
