<svg width="20" height="20" viewBox="0 0 20 20" fill="none" xmlns="http://www.w3.org/2000/svg">
<path fill-rule="evenodd" clip-rule="evenodd" d="M0.208008 0.207993V19.792H19.792V0.207993H0.208008ZM15.089 9.72015V9.72044C15.2767 9.72102 15.4902 9.73066 15.6507 9.74809C16.3044 9.81879 16.8135 10.1008 17.2466 10.6321C17.4623 10.8967 17.5361 11.0125 17.5204 11.062C17.5102 11.094 17.3622 11.1999 16.8918 11.5122C16.4296 11.8191 16.2807 11.911 16.2462 11.911C16.2111 11.911 16.138 11.8358 16.0327 11.6915C15.8299 11.4136 15.6229 11.2868 15.3029 11.2445C14.9587 11.1989 14.65 11.3074 14.4988 11.5272C14.3695 11.7149 14.35 12.017 14.4527 12.2366C14.5718 12.4909 14.7872 12.6314 15.6127 12.9934C16.5649 13.4109 17.0474 13.6967 17.3988 14.0513C17.7772 14.4332 17.9689 14.8742 18.0278 15.4979C18.0566 15.8019 18.0214 16.1622 17.9345 16.4551C17.7211 17.1733 17.1453 17.6991 16.3015 17.9466C16.0682 18.015 15.8512 18.0558 15.6365 18.0716C15.3087 18.0957 14.8395 18.0824 14.5571 18.0413C13.8427 17.9372 13.0362 17.5215 12.6341 17.0501C12.4366 16.8187 12.1846 16.4379 12.1846 16.3709C12.1846 16.3386 12.2006 16.3202 12.2641 16.2799C12.4523 16.1603 13.531 15.5437 13.5519 15.5437C13.5646 15.5437 13.6209 15.61 13.6771 15.6912C13.8043 15.875 14.1173 16.1907 14.2763 16.2961C14.4063 16.3822 14.5724 16.4512 14.7697 16.5011C14.8827 16.5293 14.9425 16.5343 15.189 16.5343C15.441 16.5342 15.4926 16.53 15.6053 16.4997C15.9034 16.4195 16.136 16.2535 16.2346 16.0507C16.2778 15.9631 16.2787 15.9522 16.2787 15.7397V15.5194L16.2257 15.4142C16.0974 15.1596 15.8209 14.9848 14.9467 14.6062C14.5452 14.4322 14.0535 14.187 13.8615 14.065C13.4233 13.7865 13.1196 13.4682 12.9203 13.0785C12.722 12.691 12.6925 12.5468 12.692 11.9641C12.6916 11.508 12.6908 11.5136 12.7852 11.2225C12.8709 10.9583 13.0463 10.6632 13.2399 10.4573C13.6263 10.0466 14.1909 9.7826 14.7954 9.73009C14.8727 9.72274 14.9763 9.71991 15.0889 9.72025L15.089 9.72015ZM9.88769 9.81025H9.88788C11.052 9.81082 11.7194 9.81486 11.7301 9.82158C11.7502 9.83406 11.7528 9.93538 11.7528 10.582V11.328L10.5911 11.3322L9.42948 11.3364V14.6346C9.42948 16.4487 9.42578 17.9437 9.42074 17.9569C9.41254 17.9791 9.32316 17.9808 8.5673 17.9808H7.72313L7.71439 17.9467C7.70878 17.928 7.70465 16.4329 7.70455 14.6244L7.70426 11.3362L6.54266 11.3321L5.38097 11.3279V10.5907C5.38097 10.0061 5.385 9.84951 5.4006 9.83396C5.41658 9.8175 6.00943 9.81327 8.5639 9.81073C9.05638 9.81025 9.49966 9.81001 9.88774 9.81025H9.88769Z" fill="#0288D1"/>
</svg>
