<svg width="20" height="20" viewBox="0 0 20 20" fill="none" xmlns="http://www.w3.org/2000/svg">
<path d="M8.33333 3.33334H3.33333C2.40833 3.33334 1.66667 4.07501 1.66667 5.00001V15C1.66667 15.9142 2.41917 16.6667 3.33333 16.6667H16.6667C17.5808 16.6667 18.3333 15.9142 18.3333 15V6.66668C18.3333 6.22465 18.1577 5.80073 17.8452 5.48817C17.5326 5.1756 17.1087 5.00001 16.6667 5.00001H10L8.33333 3.33334Z" fill="#7CB342"/>
<path fill-rule="evenodd" clip-rule="evenodd" d="M11.095 9.805H10.16V16.3508C10.16 16.8658 10.58 17.2867 11.095 17.2867H17.6408V16.35H11.095V9.805ZM18.5767 7.935H12.965C12.4517 7.935 12.03 8.355 12.03 8.87V14.4808C12.03 14.9958 12.4517 15.4158 12.965 15.4158H18.5767C19.0908 15.4158 19.5117 14.9958 19.5117 14.4808V8.87C19.5117 8.355 19.0908 7.935 18.5767 7.935ZM18.1092 12.1433H16.2383V14.0133H15.3033V12.1433H13.4333V11.2075H15.3033V9.3375H16.2383V11.2075H18.1092V12.1433Z" fill="#DCEDC8"/>
</svg>
