<svg width="12" height="12" viewBox="0 0 12 12" fill="none" xmlns="http://www.w3.org/2000/svg">
<path d="M6.00067 5.1567e-07C2.68529 -0.00137658 0 2.75557 0 6.15837C0 8.84921 1.67981 11.1366 4.01922 11.9766C4.33426 12.0578 4.286 11.8279 4.286 11.6709V10.6036C2.46676 10.8226 2.39303 9.58595 2.27103 9.37939C2.02435 8.94698 1.44118 8.83681 1.61546 8.63025C2.02972 8.41129 2.45202 8.68534 2.94135 9.42759C3.29527 9.96603 3.9857 9.87514 4.33561 9.78563C4.41202 9.46202 4.57558 9.17282 4.80081 8.94836C2.91588 8.60133 2.13026 7.41978 2.13026 6.01515C2.13026 5.33349 2.34879 4.70691 2.77779 4.20152C2.5043 3.36837 2.80326 2.65504 2.84348 2.549C3.62239 2.47739 4.43213 3.12187 4.49514 3.17283C4.93755 3.05026 5.44297 2.98554 6.00872 2.98554C6.57714 2.98554 7.0839 3.05302 7.53033 3.17696C7.68183 3.05853 8.43258 2.50494 9.15652 2.57241C9.1954 2.67845 9.48766 3.37526 9.23026 4.19738C9.66462 4.70415 9.88583 5.33624 9.88583 6.01928C9.88583 7.42667 9.09485 8.60959 7.20456 8.95111C7.36647 9.11467 7.49503 9.30973 7.58273 9.52489C7.67042 9.74005 7.71551 9.97101 7.71534 10.2043V11.7535C7.72607 11.8774 7.71534 12 7.91644 12C10.2907 11.1779 12 8.874 12 6.15974C12 2.75557 9.31337 5.1567e-07 6.00067 5.1567e-07Z" fill="#5D6773"/>
</svg>
